<?xml version="1.0" encoding="utf-8"?>

<!DOCTYPE svg PUBLIC "-//W3C//DTD SVG 1.1//EN" "http://www.w3.org/Graphics/SVG/1.1/DTD/svg11.dtd">
<svg version="1.1" id="Layer_1" xmlns="http://www.w3.org/2000/svg" xmlns:xlink="http://www.w3.org/1999/xlink" x="0px" y="0px"
	 viewBox="0 0 1300.1 1720.7" style="enable-background:new 0 0 1300.1 1720.7;" xml:space="preserve">
<style type="text/css">
	.st0{fill:#373435;stroke:#373435;}
	.st1{fill:#BC778E;stroke:#BC778E;}
	.st2{fill:#D08F9B;stroke:#D08F9B;}
	.st3{fill:#EB9A7C;stroke:#EB9A7C;}
	.st4{fill:#D98C83;stroke:#D98C83;}
	.st5{fill:#4F4B40;stroke:#4F4B40;}
	.st6{fill:#605A58;stroke:#605A58;}
	.st7{fill:#5D5A57;stroke:#5D5A57;}
	.st8{fill:#75577C;stroke:#75577C;}
	.st9{fill:#896F89;stroke:#896F89;}
	.st10{fill:#EDD882;stroke:#EDD882;}
	.st11{fill:#CEB246;stroke:#CEB246;}
</style>
<g>
	<path class="st0" d="M1010.6,91.9c23.7-19.2,53.8-29.7,84.1-31.3c34.4-2,69.8,7.4,97.5,28.1c21.6,15.9,38,38.2,47.8,63.1
		c11.4,28.2,14.5,58.9,14.5,89.1c-0.3,30.1-5.7,60.2-17.2,88.1c-9.9,23.9-24.2,45.9-41.7,64.9c-17,18.5-37,34.2-58.6,47.2
		c-23.8,14.3-49.5,25.4-75.8,34.2c-37.7,12.6-76.9,20.7-116.2,26.3c-80.7,11.3-162.3,12.9-243.6,13.2c-49.5,0.1-99-0.1-148.4,0.9
		c-39.1,1.3-78.4,2.6-116.8,10.2c-38.6,7.4-76.4,19.3-111.6,36.8c-28.9,14.3-56,32.5-80.4,53.6c-44.8,38.6-81.9,87.3-102.6,143
		c-14.2,38-20.6,79.1-17.9,119.6c3.7,60.3,27.4,118.6,64.8,165.8c34.2,43.5,79.4,77.9,129.2,101.8c17.6-25.1,37.1-48.9,58.6-70.7
		c4.4-4.6,9-8.8,13.4-13.4c-4.9-37.1-1.6-75.1,9-110.9c16.2-55.1,49.3-104.8,92.9-142c-4.4-6.3-8.1-13.2-9.7-20.8
		c-2-7.9-1.1-16.1-1.5-24.1c-0.5-23-1.7-46.1-0.4-69.1c0.8-10.7,1.9-21.6,5.4-31.8c2.1-5.9,5-11.7,9.6-16c3.7-3.5,8.6-5.8,13.7-6
		c18,0.3,36.1,3.1,53,9.5c35.6,13.2,65.2,39.7,86.1,71c2.6-1.7,5.2-3.5,7.9-5.1c1.2-0.8,2.7-1.4,3.1-2.9
		c10.1-25.9,29-47.7,51.2-63.9c13.1-9.5,27.4-17.2,42.4-23.3c5.5-2.1,11.5-3.6,17.4-2.9c4,0.4,7.9,2.4,10.1,5.8
		c2.6,4,3.1,8.9,3.1,13.6c0,14.5,0,29,0,43.6c0.1,1-0.5,3.4,1.4,3.1c74.8,0,149.5,0,224.3,0c18.4-0.8,37-0.2,55.2,3.1
		c17.9,3.4,36.3,9,49.9,21.7c3.2,3.3,7.7,6.9,6.5,12.1c-2.5,13.1-10.1,24.9-19.7,34c-3.6,3.5-7.9,6.3-11.9,9.4
		c-2.5,11-5.4,22-10.7,32c-7.2,14.2-18.7,26-32.4,34c-21.2,12.4-45.9,17.2-70,20.1c-36,3.9-72.4,3.6-108.6,3.8
		c14.5,20,27,41.7,36.2,64.6c17.2,42.3,24.2,88.8,18.7,134.2c-0.5,3.2,3.3,4.6,4.9,6.7c52,50.6,94.8,111.3,120.9,179.2
		c5.2,13.5,9.6,27.3,13.3,41.3c1.7,4.2-0.8,8.5-4.4,10.7c-12.1,9.2-24.2,18.5-36.3,27.7c-0.9,0.8-2.5,1.5-2.3,3
		c-0.1,45.2,0,90.4-0.1,135.7c-0.3,16.4-8.8,31.4-19.5,43.4c-17.7,19.5-40.4,33.6-63.6,45.6c-19.7,10.2-40.3,18.3-61.1,26
		c44.1,0.1,88.3-1.2,132.4-0.3c23.9,0.5,47.8,1.4,71.5,4.2c7.3,1,14.7,2.1,21.5,4.8c17.8,7.8,31.3,24,36.8,42.6
		c2.3,7.5,3.6,15.3,3.6,23.2c0.2,4.3-3.7,8.1-7.9,7.7c-104.9,0.1-209.9,0-314.8,0c-8.5,0-17.1,0.2-25.6-0.4
		c-18.5-1.5-37-6.6-52.4-17.2c-10.5-7.2-19.1-16.9-25-28.2c-38.5,4.2-77.6,4.2-116.1-0.2c-6.2,11.5-14.9,21.5-25.8,28.8
		c-13.9,9.4-30.3,14.5-46.8,16.3c-8.5,1-17.1,0.9-25.6,0.9c-106.4,0-212.7,0-319.1,0c-2.9,0.2-6-1-7.5-3.6c-1.4-2.3-1.1-5.1-1-7.6
		c0.9-17.1,7.1-34.3,18.9-46.9c8.1-8.5,18.2-15.6,29.8-18c12.7-2.8,25.7-3.5,38.6-4.5c60-3.8,120.1-1.4,180.1-1.6
		c-32.6-12.1-65-25.7-93.8-45.4c-11.6-8-22.7-17-32-27.8c-7.8-9.1-14.3-19.8-16.9-31.7c-1.5-6.7-1.2-13.6-1.2-20.4
		c0-42.2,0.1-84.4-0.1-126.6c-12.4-9.5-24.8-19-37.3-28.4c-2.2-1.8-5-3.4-5.9-6.3c-1-3.1,0.5-6.1,1.2-9.1
		c6.7-24.6,16-48.5,26.9-71.5c-55.1-24.8-106-60.1-146.1-105.7c-40-45.2-68.5-100.7-80.8-159.8c-8.5-40.2-9.6-81.9-3.6-122.6
		c5.3-36.1,16.4-71.1,30.9-104.5c25.1-57.4,63.8-109,112.4-148.6c51.9-42.7,113.9-71.8,178.6-89.2c40.9-11,83-17.5,125.3-20.4
		c88.7-5.5,177.5-0.7,266.2-1.1c47.5-0.2,95.1-1.6,142.4-6.7c40.3-4.4,80.5-11.5,119.3-23.4c32-9.8,63.2-23,91.9-40.3
		c23-14,43.2-33,57.6-55.8c15.6-24.3,24.3-52.6,26.7-81.3c1.5-18.1,0.7-36.4-2-54.4c-2.6-16.5-8-32.8-17.1-46.9
		c-7.3-11.4-17.1-21.3-28.5-28.7c-27.1-17.5-62.2-20.6-92.6-10.6c-12.3,4.1-24.1,10.4-33.6,19.4c-10.1,10-16.4,23.1-19.6,36.8
		c-2.1,7.4-3,15.3-6.9,22c-2.8,5.1-9,7.5-14.6,6.7c-6.4-1.5-11.2-7-13.2-13.1c-3.1-9.1-2.3-18.9-0.6-28.2
		C976.6,130,991.1,107.7,1010.6,91.9 M1031.7,95.2c-1,0.7-2.3,1.2-2.9,2.3c-23.3,14.6-40.5,39.8-43.1,67.5c-0.3,5-0.6,10.6,2.2,15
		c2.7-5.8,3.4-12.3,5.2-18.4c3.9-16,12-31.2,23.9-42.6c3.6-3.6,7.9-6.2,11.8-9.5c3.5-1.6,6.6-3.8,10-5.5
		c24.1-12.3,52.2-16.2,78.8-11.7c21.7,3.6,42.4,13.4,58.6,28.4c3.9,3.4,7.1,7.7,10.9,11.2c0.4,1.8,2.1,3.1,3.1,4.7
		c14.2,19.1,21.4,42.5,24.5,65.8c0.9,11.3,2.1,22.7,1.8,34.1c-0.4,18.8-2.7,37.6-8.1,55.6c-7.9,28.8-23.3,55.3-43.8,77.1
		c-7.4,7.6-15.3,14.7-23.8,21.1c-9.5,7.3-19.9,13.3-30.2,19.3c-21.6,11.6-44.1,21.4-67.3,29.3c-24.9,8.3-50.4,14.8-76.2,19.7
		c-36.6,6.7-73.5,10.9-110.6,12.9c-43.2,2.8-86.5,2.6-129.8,2.6c-9.3-0.3-18.7-0.1-28-0.3c-22,0-43.9-1-65.9-0.6
		c-3.9-0.4-7.8-0.2-11.7-0.3c-23.6-0.1-47.2-0.2-70.8,0.3c-3.7,0.1-7.5-0.2-11.2,0.5c-21,0.3-42,1.4-62.9,3.5
		c-10.8,0.8-21.5,2.3-32.2,3.8c-19.6,3-39.1,6.5-58.2,11.6c-28.7,6.8-56.7,16.4-83.7,28.1c-1.1,0.5-2.4,0.9-3.2,1.8
		c-7.9,2.7-15.2,6.9-22.7,10.5c-30.1,15.5-58.5,34.5-84,56.9c-4.1,3.9-8.8,7.2-12.1,11.7c-1,0.3-1.7,1.1-2.5,1.8
		c-20.7,20.3-39.3,42.9-54.8,67.4c-16.5,25.4-29.6,52.9-39.9,81.4c-7.9,22.9-14.8,46.3-18.1,70.3c-3.2,18-4.3,36.4-4.1,54.7
		c0.1,7.4,0,14.9,0.9,22.2c0,4.5,0.6,9,1.2,13.4c2.3,19.1,6.1,38,11.7,56.4c6.7,22.7,16,44.6,27.5,65.2c20.5,37,48,70.1,80.2,97.5
		c17.9,15.5,37.3,29.4,57.8,41.3c15,9.1,30.7,17.1,46.7,24.4c4.2-7.4,8.1-15,12.6-22.3c3.1-5.6,7-10.6,9.7-16.4
		c-22.1-10.7-43.1-23.6-63-38c-2.1-1.9-4.4-3.6-6.7-5.2c-47.4-36.6-86.3-85.1-108.7-140.9l-0.5,0c-1.7-6-4.4-11.6-6.2-17.6
		c-6.5-18.8-10.6-38.3-13.6-57.9c-0.2-2.7-0.5-5.3-0.7-8c-2.2-20.3-1.9-40.7-0.2-61c2.6-24.4,8.1-48.5,16.2-71.6
		c9-24.3,20.4-47.8,34.6-69.6c3.1-5.1,7-9.7,9.8-15c0.7-0.5,1.2-1,1.7-1.7c13.1-18.1,28-35,44-50.6c21.4-20.8,44.9-39.4,70.3-55.1
		c28-17.3,58.2-31.1,89.6-41.1c32.4-10.5,65.9-17.1,99.7-21c27.2-2.5,54.5-3.6,81.8-4.4c26.4-0.3,52.8-0.8,79.1-0.4l0.2-0.5
		c5.7,0.6,11.4,0.2,17.1,0.3c20.1-0.1,40.2,0.2,60.3-0.3c12.6,0.4,25.2-0.4,37.8-0.2c11.1-0.2,22.2-0.1,33.2-0.8
		c4.6-0.2,9.2,0.2,13.8-0.5c14.2-0.2,28.4-1,42.6-1.7c20.4-1.3,40.9-2.5,61.2-4.9c28.4-2.6,56.6-6.8,84.6-12.3
		c23.9-4.9,47.6-10.7,70.7-18.7c21.8-7.5,43.2-16.4,63.2-27.7c23.9-13.2,46.2-29.9,64.4-50.3c2.7-2.6,5-5.5,7.4-8.4
		c16.2-19.7,28.6-42.4,36.3-66.7c5.6-17.9,9-36.6,9.8-55.3c1-11.7,0.5-23.4-0.3-35.1c-1.1-16.8-3.7-33.7-9-49.8
		c-8-24.7-22.5-47.8-43.2-63.7c-19.6-16-44.4-25.3-69.6-27.3C1087.5,73,1057,79.7,1031.7,95.2 M757.5,640.6
		c-26.8,10.9-52,27.6-69.6,50.9c-3.2,4.6-6.8,9.1-9,14.3c5.4-1.2,10.4-3.5,15.7-4.9c18-5.2,36.6-8,55.2-9.4c5.6,0.4,11-1.3,16.6-0.9
		c0.3-0.1,0.9-0.4,1.2-0.5c0.7-6.1,0.1-12.3,0.3-18.5c-0.2-10.4,0.4-20.7-0.3-31.1l-0.6,0.6c-0.2-0.6-0.6-1.7-0.8-2.3
		C763.3,638.8,760.3,639.3,757.5,640.6 M508.9,657.5c-5,1.4-7.8,6.4-9.4,11c-3.2,9.8-4.2,20.1-4.7,30.4c-0.8,19.3-0.2,38.6,0.5,58
		c0.3,8,0,15.9,0.5,23.9c1.3,15,12.5,28.4,26.9,32.7c4.8,1.7,9.9,1.8,14.9,1.8c8.5-0.1,17.1,0,25.6-0.2c7.4,0.2,14.8,0,22.2-0.3
		c3.8-0.4,8.6-0.9,10.3-4.9c2.1-5.4,1.4-11.3,1.1-16.9c-1.2-12.4-2.5-24.9-5.2-37.1c-3.1-14.6-7.5-29.1-14.5-42.4
		c-10.9-22.1-28.8-40.9-51.1-51.6C520.7,659.4,515,656.1,508.9,657.5 M560.4,666.7c3.2,3.9,7.2,7,10.3,11
		c16,18.1,26.4,40.6,32.6,63.8c5,18.4,7.1,37.4,8.6,56.3c-0.1,7.9-0.6,16.7-5.8,23.2c-4.5,5.7-12.1,7.5-19,8.2
		c-11.6,0.6-23.3,0.1-34.9,0.8c-11.1,0.2-22.5,0.9-33.3-2.3c-5.9-1.6-11.1-4.8-16.2-7.9c-4.8,3.1-8.5,7.5-12.9,11.1
		c-22.8,21.9-42.3,47.3-56.9,75.4c-16.8,31.9-27.1,67.1-30,103c-0.1,8.6-1.5,17.1-0.7,25.7c0.7,5.9,0.4,12,1.3,17.9
		c3.1,30.3,12.1,60,27.2,86.5c13.8,24.4,32.5,46,54.7,63c9.5,7.2,19.4,14.1,30.1,19.5c0.4-10.3,0.1-20.6,0.2-30.8
		c0-85,0-170.1,0-255.1c-0.2-3.3,2.5-6.5,5.9-6.6c5.6-0.4,11.3,0.4,16.7,2c6.8,2,12.5,7.2,15.1,13.8c3.3,8.5,4,17.7,4.2,26.8
		c1.1,9.3,0.8,18.7,0.1,28.1c2.3-1.9,4.1-4.3,5.9-6.7c15.2-18.5,36.1-32.4,59.2-38.8c14.8-4,30.3-6,45.6-3.9
		c27.8,2.7,54.4,15.9,73.6,36.3c4.4,3.9,7.3,9.2,11.6,13.2c0.2-8.3-0.3-16.6,0.1-24.9c-0.1-10.1,0.5-20.5,4.2-30
		c2.3-6.2,7.5-11.3,13.8-13.5c5.7-2,11.8-2.9,17.9-2.5c3.4,0.1,6.1,3.3,5.9,6.7c0,68.8,0,137.6,0,206.5c0.1,26.5-0.2,53,0.2,79.5
		c7.7-3.6,14.7-8.6,21.8-13.2c10.2-7.2,20-15.2,28.7-24.1c34.9-34.3,56.3-81.4,61.4-129.9c1.2-12.9,2.4-25.9,1.1-38.9
		c-2.3-46.7-17.9-92.4-43.2-131.6c-3.3-4.6-5.9-9.8-9.9-13.9c-6.6,9.3-14.1,18-23.1,25.1c-23,18.7-53.4,27.3-82.7,25.2
		c-1.7-0.3-2.8-1.8-3.7-3c-2.7-3.7-0.3-9.6,4.2-10.6c5.4-1.3,11-0.1,16.5-0.6c10.2-1,20.3-3.1,29.8-6.7c23.2-8.8,43-26.4,53.6-48.8
		c1.1-2.4,3-5.2,6-4.9c17.3-0.3,34.7,0.4,52-0.8c6-0.2,12,0.1,17.9,0c7.1,0.2,14.2-1.3,21.3-0.9c24.8-1.8,50.1-3.8,73.7-12.5
		c10.1-3.9,20.2-8.8,28-16.4c10.4-8.9,17.7-21.2,21.5-34.2c2.3-5.7,2.8-11.8,4.3-17.7c1.1-3.8,5.3-5,8.1-7.1c10-7,19.1-16.8,22-28.9
		c-7-8-17.1-12.4-27-15.7c-16.9-5.1-34.6-7-52.1-6.7c-13.3-0.1-26.6,0.2-39.9,0c-68.6-0.2-137.2,0-205.8-0.1
		c-7.2,0.1-14.5-0.3-21.6,0.6c-25.8,1-51.7,5.2-75.8,14.6c-11.5,4.7-22.9,10.6-32,19.2c-3,2.7-8.7,2.1-10.7-1.5
		c-11.6-20.2-27.4-38-46-52.2C583.4,677.9,572.5,670.9,560.4,666.7 M530.2,945.2c-0.1,39.3,0,78.6,0,117.9
		c4.2-4.8,8.2-9.9,11.9-15.2c0.7-6.6,0.1-13.3,0.4-19.9c0.1-16.2,0.7-32.4,0.5-48.6c-0.3-8.2-0.3-16.6-3.1-24.4
		C538.3,950.6,535,946.3,530.2,945.2 M770.9,955.1c-2.4,7-2.7,14.5-3,21.8c-0.3,19.1,0.4,38.1,0.5,57.2c0.2,4.6-0.4,9.2,0.3,13.8
		c3.6,5.3,7.7,10.4,11.9,15.3c0.1-39.4,0.1-78.7,0-118.1C775.8,946.4,772.4,950.6,770.9,955.1 M625.3,969c-27.1,8-50.5,27.7-63.1,53
		c7.8-1.8,16-0.6,23.9-1.4c14.6,0,29.1-0.7,43.6-0.6c3.5-0.2,6.6,2.5,7.2,5.9c0.7,4.2-0.5,8.5-1.8,12.5c-2.3,5.4-6.2,9.8-10.7,13.5
		c-10.3,6.5-22.6,8.6-34.6,8.9c-1.9,2.9-3.5,5.9-4.8,9.2c13.2,0.2,26.4,0.3,39.6-0.1c3.2,0.1,6.9,1.3,8.2,4.5
		c1.7,4.4,1.5,9.5,0.2,14c-1.3,4.5-4.5,8-7.6,11.3c-2.4,1.2-4.6,2.9-7,4.1c-6.2,3.1-13,4.7-19.8,5.7c-1.3,0.2-2.8,0.3-3.7,1.4
		c-2.7,2.6-5.2,5.5-7.8,8.3c-1.3,1.6-3.7,2.9-3.5,5.2c-0.1,5.7,0,11.4,0,17.1c0.1,1.4-0.3,3.2,1,4.2c18.7,17.5,44.2,27.5,69.9,27.6
		c26.6,0.3,53.5-9.9,72.4-28.6c0.5-6.8,0.1-13.6,0.2-20.4c0.1-2.4-2.1-3.7-3.5-5.2c-2.9-3-5.5-6.5-8.9-9.1
		c-5.5-1.3-11.2-1.8-16.5-3.8c-4.7-1.3-8.8-4.2-13-6.6c-2-2.4-4.2-4.5-5.7-7.2c-2.9-5.2-3.6-11.7-1.9-17.4c1.1-3.6,4.9-5.2,8.4-5.2
		c13.2,0.4,26.4,0.3,39.6,0c-1.4-3.1-2.5-6.7-5-9c-6.1-0.6-12.2-0.8-18.1-2.4c-5.8-1.2-11.1-3.8-16.2-6.7
		c-4.5-3.8-8.4-8.1-10.8-13.5c-1.2-4.1-2.4-8.4-1.6-12.7c0.6-3.2,3.7-5.7,7-5.6c14.6-0.1,29.1,0.7,43.7,0.6c8,0.8,16.1-0.4,24,1.4
		c-8.8-18-23.3-33.1-40.5-43.2C683.4,964.3,652.6,960.7,625.3,969 M691,1035.3c4.3,5.9,11.7,8.1,18.5,9.4c5.7,1.2,11.6,0.9,17.4,1.2
		c4.2,0.4,5.9,4.6,7.6,7.9c3.6,6.6,6.8,13.5,10.8,20c8,9.8,16.5,19.3,24.6,29c2.6,3.1,2,8.2-1.2,10.6c-3.1,2.6-8.1,1.9-10.5-1.3
		c-7.7-8.8-15.2-17.9-22.9-26.7c-14.2-0.2-28.3-0.2-42.5,0c5,6.2,13.2,7.9,20.6,9.2c3.6,0.7,7.9,0.1,10.6,3.1
		c5.2,5.3,10.1,10.9,15.3,16.3c2,1.8,3.2,4.4,3,7.1c0,18.2,0,36.4,0,54.7c0.2,13-0.6,26.1,1.4,39c1,5.6,2.4,11.4,6,15.9
		c2.7,3.4,7.3,4.5,11.4,4.2c6.8-0.4,13.2-3,19.5-5.6c0.3-45.7,0-91.5,0.1-137.2c0-1.9,0.1-4-1.3-5.5c-13.1-16.8-26.1-33.6-39.2-50.4
		C723.8,1035.9,707.4,1035.3,691,1035.3 M569.3,1037.7c-12.8,16.7-26,33.2-38.7,50c-1.2,6.7-0.2,13.8-0.5,20.7
		c0,40.3,0,80.6,0,120.9c7.6,3.3,15.9,6.7,24.4,5.3c5.9-1.1,9.2-6.9,10.8-12.2c3.8-13.5,3-27.6,3.2-41.5c0-19.6,0-39.3,0-58.9
		c-0.1-2.5,0.3-5.2,2.1-7c4.5-4.9,9.1-9.7,13.6-14.6c2.1-2.2,4.2-4.9,7.5-5.1c9.2-1.2,20-2.1,26.2-9.9c-12.8-0.3-25.7,0-38.5-0.2
		c-1.6,0.1-3.8-0.4-4.8,1.2c-7.2,8.4-14.4,16.9-21.6,25.3c-1.5,1.8-3.6,3.3-6.1,3.2c-4.1,0.3-7.9-3.4-7.7-7.5
		c-0.1-3.9,3.2-6.4,5.4-9.1c5.8-6.7,11.5-13.5,17.3-20.3c5.9-6.2,8.7-14.5,13-21.9c2.3-4,3.9-10.2,9.5-10.4
		c7.6-0.2,15.4-0.3,22.8-2.6c4.5-1.5,9.5-3.4,12-7.7c-14.7-0.4-29.4,0.5-44.2,0.5C573.1,1036.2,570.5,1035.6,569.3,1037.7
		 M918.3,1078.5c-2.6,9.6-4.6,19.4-8,28.8c-3.9,11.9-9.1,23.4-14.9,34.5c-22.1,41.8-58.1,75.7-100.4,96.7c-11,5.8-23,10.6-35.5,11.2
		c-7.5-0.3-15.1-3-20.2-8.7c-4.4-5-7.1-11.4-8.6-17.8c-1.8-7.5-2.8-15.2-2.7-22.9c-0.5-12-0.1-23.9-0.3-35.9
		c-4.1,1.8-7.5,4.9-11.4,7.1c-18.8,11.3-40.7,16.6-62.5,16.9c-11.5-0.9-23.2-2.1-34.2-5.9c-12.8-4-24.7-10.5-35.7-18.2
		c-0.1,8.6,0,17.1,0,25.7c0.1,6.3-1,12.5-1.1,18.8c-1.1,11.1-3.3,22.9-10.7,31.7c-5,6.1-13,8.8-20.7,9.1
		c-11.5-0.7-22.5-4.6-32.7-9.9c-34.4-16.8-65-41.7-87.4-72.9c-18.6-25.8-31.6-55.7-38-86.8c-6.6,5.8-12.6,12.2-18.6,18.7
		c-49,53.5-88.1,117.3-107.3,187.6c11.9,9.4,24.2,18.5,36.3,27.8c2.4,2,6,3.7,6.2,7.3c0.3,15.6-0.3,31.2,0.3,46.8
		c0,26.1-0.1,52.2,0.1,78.4c-0.2,6-0.2,12.1-0.1,18.2c1.1,13.2,8.6,25,17.6,34.3c14.1,14.9,31.6,26,49.5,35.7
		c17.7,9.5,36.1,17.5,54.9,24.6c14.4,5.3,28.9,10.5,43.7,14.4c1.4,0.5,2.9,1,4.4,1.5c37.3,10.7,75.4,18.8,114,23.4
		c6.1,1.2,12.3,1.4,18.4,2.1c8.6,0.6,17.3,1.7,25.9,1.3c11,0.7,22.1,1.1,33.2,0.1c4.6-0.3,9.2,0.2,13.8-0.2
		c11.3-1.2,22.7-1.3,33.9-3.4c32.4-3.7,64.5-10.2,96-18.5c7.2-2.1,14.7-3.5,21.7-6.4c4.2-0.6,8.1-2.1,12.1-3.3
		c16.9-5.4,33.7-11.4,50-18.2c25.3-10.7,50.1-23,71.9-39.9c11.9-9.4,23.2-20.6,29-34.9c4.2-9.7,2.7-20.5,2.7-30.7
		c0.3-6.5,0.1-13,0.1-19.5c-0.1-19.6,0.1-39.3-0.1-58.9c0.4-14.5,0-29,0.2-43.4c0-3.1,0.8-6.4,3.5-8.3c13-10.2,26.3-19.9,39.2-30.2
		c-3.6-14.9-9-29.3-14.6-43.5c-21.4-53-53.6-101.3-92-143.4C931.9,1092.5,925.7,1084.9,918.3,1078.5 M329,1608.6
		c-9.4,9.8-14.6,23.1-16.1,36.5c59.3,0.2,118.5,0,177.8,0.1c12.5-0.1,25.1,0.5,37.5-1.5c8.3-1.4,16.6-3.5,24.3-7.1
		c11.6-5.3,22.2-13.5,28.7-24.5c-27.6-3.5-54.8-9.2-81.7-16c-4.3-1-8.5-2.7-12.9-2.7c-34.1,0-68.2,0-102.4,0
		c-7.7,0.1-15.4-0.2-23.1,0.4C349.1,1594.8,337.3,1599.8,329,1608.6 M816.4,1595.3c-28.4,7.5-57.2,13-86.2,17.2
		c3.9,7.4,10.4,13.1,17.2,17.9c15.7,10.7,35.1,14.5,53.8,14.7c45.2,0,90.4,0,135.6,0c20.4-0.1,40.9,0.3,61.3-0.2
		c-1.4-9.6-4.3-19.1-9.4-27.4c-6.4-10.7-17-18.8-29.1-22c-8.8-2.7-18.1-2.1-27.1-2.2c-35.3-0.1-70.5,0-105.8-0.1
		C823.2,1593.2,819.8,1594.4,816.4,1595.3 M281.5,1598.6c-10.5,1.8-19.5,8.4-26.2,16.4c-6.9,8.5-11,19.2-12.1,30.1
		c9.1,0.3,18.3,0,27.5,0.1c9-0.2,18,0.3,27-0.2c2.2-18.6,9.6-37.1,23.3-50.3C307.7,1595.2,294.5,1596.1,281.5,1598.6 M989.7,1594.7
		c13.8,13,21.3,31.6,23.4,50.2c4.4,0.6,8.8,0.2,13.3,0.3c13.8-0.1,27.5,0.1,41.3-0.1c-1.5-16.6-10.5-32.6-24.9-41.3
		c-6.6-4.4-14.6-5.6-22.3-6.7C1010.2,1595.8,1000,1595,989.7,1594.7 M225.2,1598.5c-8.7,1.5-16.2,6.5-22.4,12.6
		c-9.1,9-14.3,21.3-15.8,33.8c13.6,0.3,27.3,0.3,40.9,0c1.3-9.8,3.7-19.6,8.4-28.4c4.1-8.2,10.3-15.3,17.2-21.2
		C244,1595.8,234.5,1596.8,225.2,1598.5 M1057.1,1595.4c15.1,11.9,23.9,30.6,25.7,49.6c13.6,0.3,27.3,0.3,40.9,0
		c-1-9.2-4.2-18.2-9.3-26c-6.9-10.1-17.3-18.7-29.7-20.7C1075.6,1596.6,1066.4,1595.8,1057.1,1595.4z"/>
	<path class="st1" d="M1031.7,95.2c25.3-15.5,55.8-22.1,85.2-19.1c-0.1,4.6-1.1,9.1-1,13.6c-0.1,1.2,0.9,1.9,1.7,2.6
		c-26.6-4.5-54.7-0.7-78.8,11.7c-3.4,1.7-6.5,3.9-10,5.5c0-4-0.2-8-0.1-12C1029.4,96.3,1030.7,95.9,1031.7,95.2z"/>
	<path class="st2" d="M1116.9,76.1c25.1,2.1,49.9,11.4,69.6,27.3c-1.4,9.5,1.1,19,0.6,28.5c-3.8-3.5-7-7.8-10.9-11.2
		c-16.2-15-36.9-24.8-58.6-28.4c-0.8-0.7-1.8-1.4-1.7-2.6C1115.9,85.2,1116.8,80.6,1116.9,76.1z"/>
	<path class="st3" d="M985.8,164.9c2.6-27.7,19.7-52.9,43.1-67.5c-0.1,4,0.1,8,0.1,12c-3.8,3.3-8.2,5.9-11.8,9.5
		c-12,11.5-20,26.6-23.9,42.6c-1.8,6.1-2.5,12.6-5.2,18.4C985.2,175.5,985.5,170,985.8,164.9z"/>
	<path class="st1" d="M1186.5,103.4c20.7,15.9,35.2,39,43.2,63.7c5.3,16.1,7.9,32.9,9,49.8c0.8,11.7,1.3,23.4,0.3,35.1
		c-0.3-8.2,0.8-16.5-0.4-24.6c-2.3-4.1-6.5-6.7-9.5-10.2c-5.2-5.1-9-11.3-14-16.5c-0.1,0.4-0.3,1.3-0.4,1.8
		c-3.1-23.3-10.2-46.7-24.5-65.8c-1-1.6-2.7-2.8-3.1-4.7C1187.6,122.4,1185.1,112.9,1186.5,103.4z"/>
	<path class="st2" d="M1215.1,200.7c5,5.2,8.8,11.4,14,16.5c3,3.5,7.1,6.1,9.5,10.2c1.1,8.1,0.1,16.4,0.4,24.6
		c-0.8,18.8-4.2,37.4-9.8,55.3c-6.2-3.3-11.9-7.1-17.6-11.2c-1.5-1-2.3-2.5-3.1-3.9c5.4-18,7.6-36.9,8.1-55.6
		c0.3-11.4-0.9-22.8-1.8-34.1C1214.8,202,1215,201.1,1215.1,200.7z"/>
	<path class="st1" d="M1164.7,369.2c20.4-21.7,35.8-48.3,43.8-77.1c0.8,1.5,1.7,3,3.1,3.9c5.6,4.1,11.4,7.9,17.6,11.2
		c-7.7,24.3-20.2,47-36.3,66.7c-2.4,2.9-4.7,5.8-7.4,8.4C1178.6,377.8,1171.8,373.2,1164.7,369.2z"/>
	<path class="st4" d="M1140.9,390.3c8.5-6.4,16.4-13.5,23.8-21.1c7.1,4,13.9,8.6,20.7,13.2c-18.3,20.4-40.5,37.1-64.4,50.3
		c-3.8-7.6-6.3-15.7-10.3-23.2C1121,403.6,1131.4,397.6,1140.9,390.3z"/>
	<path class="st3" d="M1043.4,438.9c23.2-7.9,45.7-17.7,67.3-29.3c4,7.5,6.5,15.6,10.3,23.2c-20,11.4-41.4,20.3-63.2,27.7
		c-1.6-1.9-3.2-3.9-4.4-6.1C1050.3,449,1046.6,444.1,1043.4,438.9z"/>
	<path class="st2" d="M967.2,458.6c25.8-5,51.3-11.4,76.2-19.7c3.2,5.2,6.9,10.1,10,15.5c1.3,2.2,2.8,4.2,4.4,6.1
		c-23.1,8-46.8,13.8-70.7,18.7c-3.9-0.9-5.9-4.6-8.3-7.4C975.2,467.1,970.8,463.3,967.2,458.6z"/>
	<path class="st1" d="M856.6,471.5c37.1-2,74.1-6.2,110.6-12.9c3.6,4.6,8,8.5,11.6,13.1c2.4,2.8,4.4,6.5,8.3,7.4
		c-28,5.4-56.2,9.6-84.6,12.3c0.5-0.2,1.4-0.7,1.9-0.9c-6-4.2-13.1-6.5-20-8.8c-24.8-7.9-52.7-4.9-75.6,7.5c-4.2,2.4-8.6,4.7-12,8.2
		c0.4,0.2,1.3,0.5,1.8,0.6c-4.6,0.7-9.2,0.2-13.8,0.5c-11.1,0.7-22.2,0.5-33.2,0.8c-12.6-0.1-25.2,0.6-37.8,0.2
		c3.9-9,10.5-16.4,15.5-24.8c-0.9-0.2-1.8-0.4-2.7-0.6C770.1,474.1,813.4,474.3,856.6,471.5z"/>
	<path class="st4" d="M539.2,473.6c3.7-0.7,7.5-0.4,11.2-0.5c23.6-0.5,47.2-0.4,70.8-0.3c3.9,0,7.8-0.2,11.7,0.3
		c4.6,0.6,9.2,0.6,13.9,0.8c-3.2,8.6-7.4,16.8-10.2,25.5l-0.2,0.5c-26.4-0.3-52.8,0.1-79.1,0.4c-1.3-8.8-0.7-17.6-1-26.4
		C550.5,473.7,544.8,474.2,539.2,473.6z"/>
	<path class="st2" d="M632.9,473.1c22-0.4,44,0.6,65.9,0.6c9.3,0.3,18.7,0,28,0.3c0.9,0.2,1.8,0.4,2.7,0.6
		c-5,8.3-11.6,15.7-15.5,24.8c-20.1,0.5-40.2,0.1-60.3,0.3c-5.7-0.1-11.4,0.3-17.1-0.3c2.8-8.7,7-16.9,10.2-25.5
		C642.1,473.7,637.5,473.8,632.9,473.1z"/>
	<path class="st3" d="M476.3,477.1c20.9-2.1,41.9-3.2,62.9-3.5c5.7,0.6,11.3,0.1,17,0.3c0.4,8.8-0.3,17.7,1,26.4
		c-27.3,0.7-54.6,1.9-81.8,4.4c-1.1-0.1-2.2-0.2-3.3-0.3C473.7,495.3,475.2,486.2,476.3,477.1z"/>
	<path class="st1" d="M444.1,480.9c10.7-1.5,21.4-3,32.2-3.8c-1.1,9.1-2.6,18.2-4.2,27.2c1.1,0.1,2.2,0.2,3.3,0.3
		c-33.8,3.9-67.3,10.5-99.7,21c3.2-5.8,4.8-12.3,6.7-18.6c1.4-4.8,2.7-9.6,3.5-14.6C405,487.3,424.5,483.9,444.1,480.9z"/>
	<path class="st2" d="M808.9,489.1c22.9-12.4,50.7-15.4,75.6-7.5c6.9,2.3,14,4.6,20,8.8c-0.5,0.2-1.4,0.7-1.9,0.9
		c-20.3,2.4-40.8,3.5-61.2,4.9c-14.2,0.7-28.4,1.5-42.6,1.7c-0.4-0.2-1.3-0.5-1.8-0.6C800.3,493.8,804.7,491.6,808.9,489.1z"/>
	<path class="st2" d="M302.2,520.6c27-11.7,55-21.3,83.7-28.1c-0.8,4.9-2,9.8-3.5,14.6c-1.9,6.3-3.5,12.8-6.7,18.6
		c-31.4,10-61.6,23.8-89.6,41.1c-25.4,15.7-48.9,34.3-70.3,55.1c-16,15.6-30.9,32.5-44,50.6c-0.5,0.7-1,1.2-1.7,1.7
		c-15.7-0.1-31.7,0-47.2-3.4c15.5-24.5,34.1-47.1,54.8-67.4c0.8-0.7,1.5-1.5,2.5-1.8c13.6-1.2,26.8-5.1,39.4-10
		c14.8-5.8,28.5-14.1,40.9-23.9c6.9-5.2,12.8-11.7,18.9-17.8c7.5-8.4,14.3-17.5,19.6-27.4C299.8,521.5,301.1,521.1,302.2,520.6z"/>
	<path class="st1" d="M276.3,532.9c7.5-3.7,14.8-7.8,22.7-10.5c-5.3,9.9-12.1,19-19.6,27.4c-6.1,6.1-12,12.6-18.9,17.8
		c-12.4,9.8-26.1,18.2-40.9,23.9c-12.7,4.9-25.9,8.8-39.4,10c3.4-4.6,8-7.9,12.1-11.7C217.7,567.4,246.1,548.5,276.3,532.9z"/>
	<path class="st5" d="M757.5,640.6c2.7-1.3,5.7-1.8,8.7-1.7c0.2,0.6,0.6,1.7,0.8,2.3c-0.2,9.9,0,19.7-0.1,29.6
		c-0.1,6.6,0.4,13.3-0.6,19.8c-5.6-0.4-11,1.3-16.6,0.9c-18.6,1.4-37.2,4.3-55.2,9.4c-5.3,1.5-10.4,3.8-15.7,4.9
		c2.2-5.2,5.8-9.7,9-14.3C705.6,668.2,730.7,651.5,757.5,640.6z"/>
	<path class="st6" d="M767.1,641.1l0.6-0.6c0.6,10.3,0.1,20.7,0.3,31.1c-0.2,6.2,0.4,12.4-0.3,18.5c-0.3,0.1-0.9,0.4-1.2,0.5
		c1-6.6,0.5-13.2,0.6-19.8C767.1,660.9,767,651,767.1,641.1z"/>
	<path class="st3" d="M508.9,657.5c6-1.4,11.7,1.9,17.1,4.3c22.3,10.7,40.2,29.5,51.1,51.6c-5.5,3.1-11.2,5.7-16.5,9.3
		c-14.5,9.4-26.1,23.4-32,39.6c-6.3,16.2-7.3,33.9-5.9,51.1c-14.4-4.3-25.6-17.7-26.9-32.7c-0.5-7.9-0.2-15.9-0.5-23.9
		c-0.6-19.3-1.3-38.6-0.5-58c0.5-10.2,1.5-20.6,4.7-30.4C501.1,663.9,503.9,658.9,508.9,657.5z"/>
	<path class="st7" d="M560.4,666.7c12.1,4.2,23,11.2,33.3,18.7c18.5,14.1,34.4,31.9,46,52.2c2,3.7,7.8,4.2,10.7,1.5
		c9.1-8.6,20.5-14.5,32-19.2c24.1-9.4,50.1-13.6,75.8-14.6c7.2-0.9,14.4-0.5,21.6-0.6c68.6,0.1,137.2-0.1,205.8,0.1
		c1.9,29.3,10.8,59,29.6,82c9,11.7,20.8,20.9,33.5,28.3c-7.8,7.6-17.9,12.5-28,16.4c-23.6,8.6-48.9,10.7-73.7,12.5
		c-7.1-0.4-14.2,1.1-21.3,0.9c-6,0.1-12-0.2-17.9,0c-17.3,1.2-34.7,0.5-52,0.8c-3-0.2-4.9,2.5-6,4.9c-10.6,22.5-30.5,40.1-53.6,48.8
		c-9.6,3.6-19.7,5.7-29.8,6.7c-5.5,0.6-11.1-0.7-16.5,0.6c-4.5,1-6.8,6.9-4.2,10.6c0.9,1.3,2.1,2.7,3.7,3c29.4,2,59.8-6.5,82.7-25.2
		c9-7.1,16.5-15.8,23.1-25.1c4,4.1,6.6,9.3,9.9,13.9c25.3,39.2,40.9,84.9,43.2,131.6c1.3,13,0.1,26-1.1,38.9
		c-5.1,48.5-26.5,95.6-61.4,129.9c-8.8,9-18.5,16.9-28.7,24.1c-7.1,4.7-14,9.7-21.8,13.2c-0.4-26.5-0.1-53-0.2-79.5
		c0-68.8,0-137.6,0-206.5c0.2-3.4-2.5-6.6-5.9-6.7c-6-0.4-12.2,0.5-17.9,2.5c-6.3,2.2-11.4,7.2-13.8,13.5c-3.7,9.5-4.2,19.9-4.2,30
		c-0.4,8.3,0.1,16.6-0.1,24.9c-4.3-4-7.2-9.2-11.6-13.2c-19.1-20.4-45.7-33.6-73.6-36.3c-15.2-2.2-30.8-0.1-45.6,3.9
		c-23.1,6.5-44,20.3-59.2,38.8c-1.8,2.3-3.6,4.8-5.9,6.7c0.6-9.4,0.9-18.8-0.1-28.1c-0.2-9-0.8-18.3-4.2-26.8
		c-2.6-6.6-8.3-11.8-15.1-13.8c-5.4-1.6-11-2.4-16.7-2c-3.4,0.1-6.1,3.3-5.9,6.6c0,85,0,170.1,0,255.1c-0.1,10.3,0.2,20.6-0.2,30.8
		c-10.7-5.4-20.6-12.2-30.1-19.5c-22.3-17-41-38.6-54.7-63c-15-26.5-24.1-56.2-27.2-86.5c-0.9-5.9-0.5-12-1.3-17.9
		c-0.8-8.6,0.6-17.1,0.7-25.7c2.9-35.9,13.2-71.1,30-103c14.6-28.1,34.1-53.5,56.9-75.4c4.4-3.6,8.1-8,12.9-11.1
		c5.1,3.1,10.4,6.3,16.2,7.9c10.8,3.2,22.2,2.5,33.3,2.3c11.6-0.7,23.3-0.2,34.9-0.8c6.9-0.7,14.4-2.5,19-8.2
		c5.2-6.5,5.7-15.2,5.8-23.2c-1.5-18.9-3.6-37.9-8.6-56.3c-6.1-23.2-16.5-45.7-32.6-63.8C567.6,673.7,563.6,670.6,560.4,666.7
		 M718.7,777.7c-3.2,1-5.9,4.5-5.2,8c0.8,3.3,3.9,6.3,7.5,6c15.1,0,30.2,0,45.2,0c4.5,0,9.4-0.5,13.4,2.1c2.5,1.5,4.6,4.4,7.9,4
		c3.6,0.2,7.3-3,6.9-6.8c0.5-3.8-2.6-6.4-5.4-8.3c-5.6-4.1-12.6-5.5-19.4-5.3C752.6,777.7,735.6,777.1,718.7,777.7z"/>
	<path class="st1" d="M83,752.2c10.3-28.4,23.4-56,39.9-81.4c15.4,3.4,31.4,3.2,47.2,3.4c-2.8,5.3-6.7,9.9-9.8,15
		c-14.2,21.8-25.6,45.3-34.6,69.6c-9.9-1.2-19.8-2.6-29.6-4.6C91.7,753.3,87.4,751.7,83,752.2z"/>
	<path class="st8" d="M985.6,704.8c13.3,0.2,26.6-0.1,39.9,0c1.5,16.9,5.6,33.9,14.8,48.3c7.1,11.8,17.9,21,29.9,27.8
		c-3.9,13.1-11.1,25.3-21.5,34.2c-12.7-7.4-24.5-16.6-33.5-28.3C996.4,763.8,987.5,734.1,985.6,704.8z"/>
	<path class="st9" d="M1025.5,704.8c17.6-0.3,35.3,1.6,52.1,6.7c9.9,3.3,20,7.7,27,15.7c-2.9,12.1-12,21.9-22,28.9
		c-2.8,2.2-7.1,3.3-8.1,7.1c-1.6,5.9-2.1,12-4.3,17.7c-11.9-6.8-22.7-16-29.9-27.8C1031.1,738.7,1027.1,721.7,1025.5,704.8z"/>
	<path class="st2" d="M577.1,713.5c7,13.3,11.4,27.8,14.5,42.4c-6.9,3.7-13.6,8.2-17.9,15c-8.8,12.9-10.4,29-10.5,44.2
		c-8.5,0.2-17.1,0.1-25.6,0.2c-5,0-10.1-0.1-14.9-1.8c-1.4-17.2-0.4-34.9,5.9-51.1c6-16.3,17.6-30.2,32-39.6
		C565.8,719.2,571.6,716.6,577.1,713.5z"/>
	<path class="st3" d="M83,752.2c4.4-0.4,8.7,1.1,13,2c9.8,2,19.7,3.5,29.6,4.6c-8.1,23.2-13.6,47.2-16.2,71.6
		c-7.9-0.6-15.7-2.2-23.5-3.1c-6.8-1-13.7-1.1-20.4-2.4c-0.2-0.6-0.5-1.8-0.7-2.4C68.2,798.4,75.1,775.1,83,752.2z"/>
	<path class="st1" d="M591.6,755.9c2.7,12.2,4,24.6,5.2,37.1c0.2,5.6,1,11.6-1.1,16.9c-1.7,3.9-6.5,4.5-10.3,4.9
		c-7.4,0.3-14.8,0.5-22.2,0.3c0.1-15.2,1.6-31.3,10.5-44.2C578,764.1,584.7,759.5,591.6,755.9z"/>
	<path class="st0" d="M718.7,777.7c16.9-0.6,33.9,0,50.9-0.3c6.8-0.3,13.9,1.2,19.4,5.3c2.8,1.9,5.9,4.5,5.4,8.3
		c0.4,3.8-3.2,7-6.9,6.8c-3.3,0.4-5.4-2.5-7.9-4c-3.9-2.6-8.9-2.1-13.4-2.1c-15.1,0.1-30.2,0-45.2,0c-3.6,0.2-6.7-2.7-7.5-6
		C712.8,782.2,715.5,778.7,718.7,777.7z"/>
	<path class="st4" d="M60.7,877.1c-0.2-18.3,0.9-36.7,4.1-54.7c0.2,0.6,0.5,1.8,0.7,2.4c6.7,1.3,13.6,1.4,20.4,2.4
		c7.9,0.9,15.6,2.4,23.5,3.1c-1.7,20.3-2,40.8,0.2,61c0.3,2.6,0.5,5.3,0.7,8c-16.2-1.2-32.5-1.6-48.7,0
		C60.8,892,60.9,884.5,60.7,877.1z"/>
	<path class="st2" d="M61.7,899.4c16.2-1.6,32.5-1.2,48.7,0c3,19.6,7.1,39.1,13.6,57.9c1.8,5.9,4.5,11.6,6.2,17.6
		c-6.3-0.4-12.2-2.9-18.4-3.6c-12.3-2.2-24.8-2.4-37.2-2c-5.6-18.4-9.5-37.3-11.7-56.4C62.3,908.3,61.7,903.8,61.7,899.4z"/>
	<path class="st3" d="M530.2,945.2c4.8,1.1,8.1,5.4,9.7,9.9c2.8,7.8,2.8,16.2,3.1,24.4c0.2,16.2-0.4,32.4-0.5,48.6
		c-0.3,6.6,0.3,13.3-0.4,19.9c-3.7,5.2-7.6,10.3-11.9,15.2C530.2,1023.8,530.1,984.5,530.2,945.2z"/>
	<path class="st3" d="M770.9,955.1c1.5-4.6,4.9-8.8,9.7-10c0.1,39.4,0.1,78.7,0,118.1c-4.1-4.9-8.3-10-11.9-15.3
		c-0.7-4.5-0.1-9.2-0.3-13.8c-0.1-19.1-0.8-38.1-0.5-57.2C768.1,969.6,768.5,962.1,770.9,955.1z"/>
	<path class="st10" d="M625.3,969c27.4-8.3,58.1-4.8,82.8,9.8c17.2,10.1,31.7,25.2,40.5,43.2c-7.9-1.8-16-0.6-24-1.4
		c-8-12.2-19.8-21.7-32.9-28.1c-8.2-3.7-16.8-6.7-25.8-7.3c-1.3,2.5-2.3,5.3-4.5,7.1c-3.6,2.6-9.1,2.5-12.5-0.5
		c-1.9-1.9-2.8-4.4-4-6.7c-23.5,2.5-45.6,15.9-58.8,35.4c-8,0.8-16.1-0.4-23.9,1.4C574.7,996.7,598.2,977.1,625.3,969z"/>
	<path class="st1" d="M74.5,969.2c12.4-0.4,24.9-0.2,37.2,2c6.2,0.7,12.1,3.1,18.4,3.6l0.5,0c22.3,55.8,61.2,104.3,108.7,140.9
		c2.3,1.7,4.5,3.4,6.7,5.2c0.4,17.6-0.6,35.4-6,52.2c-20.5-12-39.9-25.8-57.8-41.3c0.5-1.5,1.1-3.1,1-4.7
		c-0.5-15.4-4.8-30.6-12-44.2c-12.8-23.1-34.9-41.1-60.5-47.8c-2.9-0.6-5.9-2.2-8.8-0.8C90.5,1013.8,81.2,991.9,74.5,969.2z"/>
	<path class="st11" d="M586.1,1020.7c13.2-19.5,35.3-33,58.8-35.4c1.2,2.3,2.1,4.8,4,6.7c3.4,3,8.9,3.1,12.5,0.5
		c2.2-1.8,3.2-4.6,4.5-7.1c9,0.5,17.7,3.6,25.8,7.3c13,6.4,24.9,15.8,32.9,28.1c-14.6,0.1-29.1-0.7-43.7-0.6c-3.3-0.1-6.3,2.4-7,5.6
		c-0.8,4.3,0.4,8.6,1.6,12.7c-13.5-0.1-26.9-0.3-40.4,0.1c1.3-4,2.5-8.3,1.8-12.5c-0.6-3.4-3.8-6-7.2-5.9
		C615.2,1020,600.6,1020.7,586.1,1020.7z"/>
	<path class="st2" d="M102,1034.4c2.9-1.4,5.9,0.2,8.8,0.8c25.7,6.7,47.7,24.7,60.5,47.8c7.2,13.6,11.5,28.8,12,44.2
		c0,1.6-0.6,3.1-1,4.7C150,1104.5,122.5,1071.4,102,1034.4z"/>
	<path class="st3" d="M691,1035.3c16.4,0.1,32.8,0.6,49.2,0.9c13.1,16.8,26.1,33.6,39.2,50.4c1.4,1.5,1.2,3.6,1.3,5.5
		c-0.2,45.7,0.1,91.5-0.1,137.2c-6.2,2.7-12.7,5.2-19.5,5.6c-4.2,0.3-8.7-0.9-11.4-4.2c-3.7-4.5-5.1-10.3-6-15.9
		c-2-12.9-1.2-26-1.4-39c0-18.2,0-36.4,0-54.7c0.2-2.7-1-5.3-3-7.1c-5.2-5.4-10.1-10.9-15.3-16.3c-2.7-3-7-2.4-10.6-3.1
		c-7.4-1.2-15.6-3-20.6-9.2c14.2-0.3,28.3-0.2,42.5,0c7.7,8.9,15.2,17.9,22.9,26.7c2.4,3.2,7.4,3.9,10.5,1.3
		c3.2-2.4,3.9-7.5,1.2-10.6c-8.1-9.8-16.6-19.2-24.6-29c-3.9-6.5-7.1-13.4-10.8-20c-1.7-3.2-3.4-7.5-7.6-7.9
		c-5.8-0.4-11.7-0.1-17.4-1.2C702.7,1043.4,695.3,1041.1,691,1035.3z"/>
	<path class="st3" d="M569.3,1037.7c1.2-2.1,3.8-1.5,5.7-1.6c14.7-0.1,29.4-0.9,44.2-0.5c-2.5,4.3-7.5,6.2-12,7.7
		c-7.4,2.3-15.1,2.4-22.8,2.6c-5.6,0.2-7.2,6.4-9.5,10.4c-4.3,7.3-7.1,15.6-13,21.9c-5.8,6.7-11.5,13.5-17.3,20.3
		c-2.2,2.8-5.5,5.3-5.4,9.1c-0.2,4.1,3.6,7.8,7.7,7.5c2.4,0,4.5-1.4,6.1-3.2c7.2-8.4,14.4-16.9,21.6-25.3c1.1-1.6,3.2-1.1,4.8-1.2
		c12.8,0.1,25.7-0.2,38.5,0.2c-6.2,7.8-17.1,8.7-26.2,9.9c-3.3,0.2-5.4,2.9-7.5,5.1c-4.5,4.9-9.1,9.7-13.6,14.6
		c-1.8,1.8-2.1,4.5-2.1,7c0,19.6,0,39.3,0,58.9c-0.1,13.8,0.7,28-3.2,41.5c-1.6,5.3-4.9,11.2-10.8,12.2c-8.5,1.4-16.8-2-24.4-5.3
		c-0.1-40.3,0-80.6,0-120.9c0.3-6.9-0.7-13.9,0.5-20.7C543.4,1070.9,556.5,1054.4,569.3,1037.7z"/>
	<path class="st10" d="M635.1,1038.4c13.5-0.3,26.9-0.2,40.4-0.1c2.3,5.4,6.3,9.8,10.8,13.5c-0.2,6,0,12-0.2,18.1
		c-3.5,0-7.3,1.6-8.4,5.2c-1.7,5.7-1,12.2,1.9,17.4c1.5,2.7,3.7,4.8,5.7,7.2c-20,0.1-39.9,0-59.9,0c3.1-3.4,6.3-6.8,7.6-11.3
		c1.4-4.5,1.6-9.6-0.2-14c-1.3-3.3-5-4.4-8.2-4.5c-0.1-6,0-12-0.2-18.1C628.9,1048.2,632.9,1043.8,635.1,1038.4z"/>
	<path class="st11" d="M589.8,1060.8c12-0.3,24.3-2.5,34.6-8.9c0.2,6,0.1,12,0.2,18.1c-13.2,0.4-26.4,0.2-39.6,0.1
		C586.3,1066.8,587.9,1063.7,589.8,1060.8z"/>
	<path class="st11" d="M686.3,1051.9c5.1,2.9,10.5,5.5,16.2,6.7c5.9,1.6,12.1,1.7,18.1,2.4c2.5,2.4,3.6,5.9,5,9
		c-13.2,0.2-26.4,0.3-39.6,0C686.3,1063.9,686.1,1057.9,686.3,1051.9z"/>
	<path class="st7" d="M918.3,1078.5c7.5,6.4,13.7,14,20.5,21c38.4,42.2,70.6,90.4,92,143.4c5.6,14.2,11,28.6,14.6,43.5
		c-12.9,10.3-26.2,20-39.2,30.2c-2.7,1.9-3.5,5.2-3.5,8.3c-0.2,14.5,0.2,29-0.2,43.4c-57.2,17.8-112.2,43.6-160.4,79.4
		c-25,18.5-47.9,39.7-68,63.4c-19.7,23.2-36.5,48.9-50,76.3c-1.9,3.7-3.6,7.5-5,11.3c-11.2,2.1-22.6,2.2-33.9,3.4
		c-4.6,0.4-9.2-0.1-13.8,0.2c-11,1-22.1,0.6-33.2-0.1c-8.7,0.4-17.3-0.8-25.9-1.3c-6.1-0.7-12.3-0.9-18.4-2.1
		c-11.6-26-26.5-50.6-43.7-73.3c-24-31.2-52.8-58.5-84.8-81.5c-47.1-33.8-100.3-58.6-155.6-75.6c-0.5-15.6,0.1-31.2-0.3-46.8
		c-0.1-3.6-3.7-5.3-6.2-7.3c-12-9.3-24.3-18.4-36.3-27.8c19.3-70.3,58.4-134.1,107.3-187.6c6-6.4,12-12.9,18.6-18.7
		c6.4,31.2,19.3,61,38,86.8c22.4,31.2,53,56.2,87.4,72.9c10.2,5.2,21.2,9.2,32.7,9.9c7.7-0.3,15.6-3.1,20.7-9.1
		c7.4-8.8,9.6-20.6,10.7-31.7c0.1-6.3,1.2-12.5,1.1-18.8c0-8.6-0.1-17.2,0-25.7c11,7.7,22.8,14.2,35.7,18.2c11,3.7,22.7,5,34.2,5.9
		c21.8-0.2,43.8-5.6,62.5-16.9c4-2.1,7.3-5.3,11.4-7.1c0.2,12-0.2,23.9,0.3,35.9c-0.1,7.7,0.9,15.4,2.7,22.9
		c1.5,6.4,4.2,12.8,8.6,17.8c5.1,5.7,12.8,8.4,20.2,8.7c12.6-0.6,24.5-5.4,35.5-11.2c42.2-21,78.3-54.9,100.4-96.7
		c5.8-11.1,11-22.6,14.9-34.5C913.6,1097.9,915.7,1088.1,918.3,1078.5z"/>
	<path class="st11" d="M618.4,1103.9c2.4-1.2,4.6-2.9,7-4.1c20,0,39.9,0.1,59.9,0c4.2,2.4,8.2,5.2,13,6.6c5.3,2,11,2.6,16.5,3.8
		c3.4,2.5,5.9,6,8.9,9.1c-13.6,18.3-34.8,31.3-57.7,33.5c-1.5-2.8-2.5-6.1-5.4-7.7c-3.5-1.8-8-1.7-11.2,0.8c-2.1,1.9-3.2,4.5-4.5,7
		c-12.7-1-24.9-6-35.6-12.8c-8.6-5.5-15.8-12.7-22.1-20.7c2.6-2.7,5-5.6,7.8-8.3c0.9-1.1,2.4-1.2,3.7-1.4
		C605.4,1108.6,612.2,1107,618.4,1103.9z"/>
	<path class="st10" d="M583.7,1124.5c-0.2-2.3,2.2-3.6,3.5-5.2c6.2,8,13.5,15.2,22.1,20.7c10.7,6.8,22.9,11.8,35.6,12.8
		c1.3-2.4,2.4-5.1,4.5-7c3.1-2.4,7.7-2.5,11.2-0.8c2.9,1.6,4,5,5.4,7.7c22.9-2.1,44.1-15.2,57.7-33.5c1.4,1.5,3.6,2.8,3.5,5.2
		c0,6.8,0.3,13.6-0.2,20.4c-19,18.7-45.9,28.9-72.4,28.6c-25.6-0.1-51.1-10.1-69.9-27.6c-1.3-1-0.9-2.8-1-4.2
		C583.7,1135.9,583.6,1130.2,583.7,1124.5z"/>
	<path class="st2" d="M246,1121c19.9,14.4,40.9,27.3,63,38c-2.7,5.7-6.7,10.8-9.7,16.4c-4.4,7.3-8.4,14.9-12.6,22.3
		c-16-7.2-31.7-15.2-46.7-24.4C245.4,1156.4,246.4,1138.5,246,1121z"/>
	<path class="st9" d="M309.9,1368.4c55.3,17.1,108.5,41.8,155.6,75.6c31.9,23,60.8,50.3,84.8,81.5c17.2,22.7,32.1,47.3,43.7,73.3
		c-38.6-4.6-76.7-12.7-114-23.4c-1.5-0.5-3-1-4.4-1.5c-5.6-12.7-14.2-23.7-22.8-34.5c-27.3-32.6-63.4-56.8-101.4-75.2
		c-13.4-6.7-27.3-12.5-41.4-17.5C309.8,1420.6,309.9,1394.5,309.9,1368.4z"/>
	<path class="st9" d="M842.1,1447.8c48.2-35.8,103.2-61.5,160.4-79.4c0.3,19.6,0,39.3,0.1,58.9c-0.1,6.5,0.2,13-0.1,19.5
		c-13.8,4.7-27.1,10.8-40.4,16.9c-30.3,14.7-59.2,32.9-83.7,56.2c-3.9,3.2-7.3,6.9-10.6,10.7c-12.2,12.9-22.8,27.5-31,43.2
		c-7,2.8-14.5,4.3-21.7,6.4c-31.6,8.2-63.6,14.8-96,18.5c1.5-3.9,3.2-7.6,5-11.3c13.5-27.3,30.2-53,50-76.3
		C794.2,1487.5,817.2,1466.3,842.1,1447.8z"/>
	<path class="st8" d="M310,1446.8c14.1,5,28,10.8,41.4,17.5c38,18.4,74.1,42.6,101.4,75.2c8.6,10.7,17.2,21.8,22.8,34.5
		c-14.8-4-29.3-9.2-43.7-14.4c-18.8-7.1-37.2-15.1-54.9-24.6c-17.9-9.7-35.4-20.8-49.5-35.7c-9-9.4-16.5-21.1-17.6-34.3
		C309.7,1458.9,309.8,1452.8,310,1446.8z"/>
	<path class="st8" d="M962.1,1463.7c13.2-6.2,26.5-12.2,40.4-16.9c0,10.2,1.5,21-2.7,30.7c-5.8,14.3-17.1,25.5-29,34.9
		c-21.7,16.9-46.6,29.2-71.9,39.9c-16.4,6.9-33.1,12.8-50,18.2c-4,1.2-7.9,2.8-12.1,3.3c8.2-15.8,18.8-30.3,31-43.2
		c3.3-3.8,6.7-7.5,10.6-10.7C902.9,1496.7,931.8,1478.4,962.1,1463.7z"/>
	<path class="st3" d="M329,1608.6c8.3-8.8,20.1-13.7,32-14.8c7.7-0.6,15.4-0.3,23.1-0.4c34.1,0,68.2,0,102.4,0
		c4.5,0,8.6,1.8,12.9,2.7c26.9,6.8,54.2,12.5,81.7,16c-6.5,11.1-17.1,19.3-28.7,24.5c-7.7,3.5-16,5.7-24.3,7.1
		c-12.4,2-25,1.4-37.5,1.5c-59.3-0.1-118.5,0.1-177.8-0.1C314.4,1631.7,319.6,1618.4,329,1608.6z"/>
	<path class="st3" d="M816.4,1595.3c3.4-0.9,6.8-2,10.3-1.9c35.3,0.1,70.5,0,105.8,0.1c9.1,0.1,18.3-0.5,27.1,2.2
		c12.1,3.2,22.7,11.3,29.1,22c5,8.3,8,17.8,9.4,27.4c-20.4,0.4-40.9,0.1-61.3,0.2c-45.2,0-90.4,0-135.6,0
		c-18.7-0.3-38.1-4-53.8-14.7c-6.7-4.8-13.3-10.5-17.2-17.9C759.2,1608.2,788.1,1602.7,816.4,1595.3z"/>
	<path class="st3" d="M281.5,1598.6c13-2.5,26.2-3.3,39.5-3.9c-13.7,13.1-21.2,31.6-23.3,50.3c-9,0.6-18,0.1-27,0.2
		c-9.2-0.1-18.3,0.2-27.5-0.1c1.1-10.9,5.2-21.5,12.1-30.1C262,1607,271,1600.3,281.5,1598.6z"/>
	<path class="st3" d="M989.7,1594.7c10.3,0.3,20.5,1.2,30.7,2.4c7.7,1.1,15.7,2.3,22.3,6.7c14.3,8.7,23.4,24.8,24.9,41.3
		c-13.8,0.2-27.5,0-41.3,0.1c-4.4-0.1-8.9,0.3-13.3-0.3C1011,1626.3,1003.6,1607.7,989.7,1594.7z"/>
	<path class="st3" d="M225.2,1598.5c9.3-1.8,18.9-2.8,28.4-3.1c-7,6-13.1,13-17.2,21.2c-4.7,8.8-7.1,18.5-8.4,28.4
		c-13.6,0.3-27.3,0.3-40.9,0c1.5-12.5,6.7-24.9,15.8-33.8C208.9,1605.1,216.5,1600,225.2,1598.5z"/>
	<path class="st3" d="M1057.1,1595.4c9.3,0.3,18.5,1.2,27.6,3c12.4,2,22.8,10.5,29.7,20.7c5.1,7.7,8.3,16.7,9.3,26
		c-13.6,0.2-27.3,0.3-40.9,0C1081,1626,1072.2,1607.4,1057.1,1595.4z"/>
</g>
</svg>
